<svg width="14" height="11" viewBox="0 0 14 11" fill="none" xmlns="http://www.w3.org/2000/svg">
<path d="M8.27273 3.35771C8.27273 3.28776 8.29394 3.22072 8.33636 3.1566C8.37879 3.09247 8.42651 3.04875 8.47955 3.02544C8.79773 2.89719 9.12386 2.79809 9.45795 2.72814C9.79205 2.65819 10.1394 2.62321 10.5 2.62321C10.7333 2.62321 10.9614 2.63778 11.1841 2.66693C11.4068 2.69608 11.6242 2.7398 11.8364 2.79809C11.9 2.82141 11.9583 2.86513 12.0114 2.92925C12.0644 2.99338 12.0909 3.06624 12.0909 3.14785C12.0909 3.2761 12.0511 3.3752 11.9716 3.44515C11.892 3.5151 11.7939 3.53259 11.6773 3.49762C11.497 3.43932 11.3087 3.3956 11.1125 3.36645C10.9163 3.33731 10.7121 3.32273 10.5 3.32273C10.1924 3.32273 9.89545 3.3548 9.60909 3.41892C9.32273 3.48304 9.04167 3.57923 8.76591 3.70747C8.61742 3.76577 8.49811 3.76285 8.40795 3.69873C8.3178 3.63461 8.27273 3.52093 8.27273 3.35771ZM8.27273 7.20509C8.27273 7.13514 8.29394 7.06518 8.33636 6.99523C8.37879 6.92528 8.42651 6.87864 8.47955 6.85533C8.79773 6.72708 9.12386 6.6309 9.45795 6.56677C9.79205 6.50265 10.1394 6.47059 10.5 6.47059C10.7333 6.47059 10.9614 6.48516 11.1841 6.51431C11.4068 6.54346 11.6242 6.58718 11.8364 6.64547C11.9 6.66879 11.9583 6.71251 12.0114 6.77663C12.0644 6.84075 12.0909 6.91362 12.0909 6.99523C12.0909 7.12348 12.0511 7.22258 11.9716 7.29253C11.892 7.36248 11.7939 7.37997 11.6773 7.34499C11.497 7.2867 11.3087 7.24298 11.1125 7.21383C10.9163 7.18468 10.7121 7.17011 10.5 7.17011C10.1924 7.17011 9.89545 7.19926 9.60909 7.25755C9.32273 7.31585 9.04167 7.40911 8.76591 7.53736C8.61742 7.59565 8.49811 7.59565 8.40795 7.53736C8.3178 7.47907 8.27273 7.36831 8.27273 7.20509ZM8.27273 5.2814C8.27273 5.21145 8.29394 5.14441 8.33636 5.08029C8.37879 5.01616 8.42651 4.97244 8.47955 4.94913C8.79773 4.82088 9.12386 4.72178 9.45795 4.65183C9.79205 4.58188 10.1394 4.5469 10.5 4.5469C10.7333 4.5469 10.9614 4.56147 11.1841 4.59062C11.4068 4.61977 11.6242 4.66349 11.8364 4.72178C11.9 4.7451 11.9583 4.78882 12.0114 4.85294C12.0644 4.91706 12.0909 4.98993 12.0909 5.07154C12.0909 5.19979 12.0511 5.29889 11.9716 5.36884C11.892 5.43879 11.7939 5.45628 11.6773 5.4213C11.497 5.36301 11.3087 5.31929 11.1125 5.29014C10.9163 5.261 10.7121 5.24642 10.5 5.24642C10.1924 5.24642 9.89545 5.27848 9.60909 5.34261C9.32273 5.40673 9.04167 5.50291 8.76591 5.63116C8.61742 5.68945 8.49811 5.68654 8.40795 5.62242C8.3178 5.55829 8.27273 5.44462 8.27273 5.2814ZM7.50909 9.61844C8.03939 9.32697 8.55909 9.10837 9.06818 8.96264C9.57727 8.81691 10.1182 8.74404 10.6909 8.74404C11.0939 8.74404 11.5102 8.77901 11.9398 8.84897C12.3693 8.91892 12.7379 9.01219 13.0455 9.12877V1.62639C12.6848 1.42819 12.303 1.28246 11.9 1.18919C11.497 1.09592 11.0939 1.04928 10.6909 1.04928C10.1182 1.04928 9.56402 1.14547 9.02841 1.33784C8.4928 1.53021 7.98636 1.80127 7.50909 2.15103V9.61844ZM7.03182 11C6.94697 11 6.87008 10.9913 6.80114 10.9738C6.7322 10.9563 6.67121 10.9242 6.61818 10.8776C6.1197 10.5395 5.58939 10.2772 5.02727 10.0906C4.46515 9.90408 3.89242 9.81081 3.30909 9.81081C2.91667 9.81081 2.53485 9.86327 2.16364 9.9682C1.79242 10.0731 1.42121 10.2014 1.05 10.3529C0.806061 10.4812 0.570076 10.4637 0.342045 10.3005C0.114015 10.1373 0 9.90408 0 9.60095V1.50397C0 1.32909 0.0371212 1.16879 0.111364 1.02305C0.185606 0.877319 0.29697 0.763646 0.445455 0.682035C0.890909 0.448861 1.35492 0.276895 1.8375 0.166137C2.32008 0.055379 2.81061 0 3.30909 0C3.97727 0 4.62689 0.0990992 5.25795 0.297297C5.88901 0.495496 6.4803 0.798622 7.03182 1.20668C7.57273 0.798622 8.15341 0.495496 8.77386 0.297297C9.39432 0.0990992 10.0333 0 10.6909 0C11.1894 0 11.6773 0.055379 12.1545 0.166137C12.6318 0.276895 13.0932 0.448861 13.5386 0.682035C13.6871 0.763646 13.8011 0.877319 13.8807 1.02305C13.9602 1.16879 14 1.32909 14 1.50397V9.60095C14 9.9274 13.8807 10.1751 13.642 10.3442C13.4034 10.5132 13.1674 10.5162 12.9341 10.3529C12.5735 10.1897 12.2076 10.0586 11.8364 9.95946C11.4652 9.86036 11.0833 9.81081 10.6909 9.81081C10.1182 9.81081 9.55606 9.90408 9.00455 10.0906C8.45303 10.2772 7.93333 10.5395 7.44545 10.8776C7.39242 10.9242 7.33144 10.9563 7.2625 10.9738C7.19356 10.9913 7.11667 11 7.03182 11Z" fill="url(#paint0_linear_104_11)"/>
<defs>
<linearGradient id="paint0_linear_104_11" x1="7" y1="0" x2="7" y2="11" gradientUnits="userSpaceOnUse">
<stop stop-color="#CA82FF"/>
<stop offset="1" stop-color="#A760FF"/>
</linearGradient>
</defs>
</svg>
