<svg width="14" height="13" viewBox="0 0 14 13" fill="none" xmlns="http://www.w3.org/2000/svg">
<path d="M7.92803 13C7.68045 13 7.50014 12.9187 7.38712 12.7562C7.27409 12.5938 7.26063 12.3933 7.34675 12.155L9.72032 5.8175C9.7849 5.64417 9.90331 5.49792 10.0755 5.37875C10.2478 5.25958 10.4254 5.2 10.6084 5.2C10.7914 5.2 10.9717 5.25958 11.1493 5.37875C11.3269 5.49792 11.448 5.64417 11.5126 5.8175L13.9346 12.09C14.0315 12.3392 14.0207 12.5531 13.9023 12.7319C13.7839 12.9106 13.5848 13 13.3049 13C13.1865 13 13.0734 12.9621 12.9658 12.8863C12.8582 12.8104 12.7828 12.7129 12.7397 12.5938L12.2069 10.9525H9.10674L8.49317 12.61C8.45011 12.7183 8.37476 12.8104 8.26711 12.8863C8.15947 12.9621 8.04644 13 7.92803 13ZM9.46197 9.815H11.7548L10.6245 6.6625H10.5922L9.46197 9.815ZM4.02053 4.2575C4.182 4.53917 4.35961 4.81271 4.55337 5.07812C4.74713 5.34354 4.95704 5.61708 5.18309 5.89875C5.66749 5.38958 6.07116 4.86146 6.39409 4.31437C6.71703 3.76729 6.99152 3.19583 7.21758 2.6H0.645868C0.462872 2.6 0.309479 2.53771 0.185687 2.41313C0.0618957 2.28854 0 2.13417 0 1.95C0 1.76583 0.0618957 1.61146 0.185687 1.48687C0.309479 1.36229 0.462872 1.3 0.645868 1.3H4.52108V0.65C4.52108 0.465833 4.58297 0.311458 4.70676 0.186875C4.83056 0.0622916 4.98395 0 5.16695 0C5.34994 0 5.50333 0.0622916 5.62713 0.186875C5.75092 0.311458 5.81281 0.465833 5.81281 0.65V1.3H9.68802C9.87102 1.3 10.0244 1.36229 10.1482 1.48687C10.272 1.61146 10.3339 1.76583 10.3339 1.95C10.3339 2.13417 10.272 2.28854 10.1482 2.41313C10.0244 2.53771 9.87102 2.6 9.68802 2.6H8.50931C8.2725 3.3475 7.95763 4.08146 7.56473 4.80187C7.17183 5.52229 6.69012 6.2075 6.1196 6.8575L7.70198 8.46625L7.21758 9.7825L5.16695 7.8L2.37357 10.6112C2.25516 10.7304 2.10984 10.79 1.9376 10.79C1.76537 10.79 1.62005 10.725 1.50164 10.595C1.37247 10.4758 1.30788 10.3296 1.30788 10.1562C1.30788 9.98292 1.37247 9.83125 1.50164 9.70125L4.34346 6.84125C4.06359 6.50542 3.79986 6.16687 3.55227 5.82562C3.30469 5.48437 3.07864 5.135 2.87411 4.7775C2.74494 4.53917 2.73418 4.33333 2.84182 4.16C2.94946 3.98667 3.14323 3.9 3.4231 3.9C3.54151 3.9 3.65723 3.93521 3.77026 4.00563C3.88328 4.07604 3.96671 4.16 4.02053 4.2575Z" fill="url(#paint0_linear_104_13)"/>
<defs>
<linearGradient id="paint0_linear_104_13" x1="7" y1="0" x2="7" y2="13" gradientUnits="userSpaceOnUse">
<stop stop-color="#CA82FF"/>
<stop offset="1" stop-color="#A760FF"/>
</linearGradient>
</defs>
</svg>
